<svg id="Layer_1" data-name="Layer 1" xmlns="http://www.w3.org/2000/svg" viewBox="0 0 335.58 312.75"><rect x="37.45" y="120.49" width="251.02" height="51.02" style="fill:#8b8f9e;stroke:#231f20;stroke-miterlimit:1"/><path d="M161.94,333.57c-8.16-55.1-6.12-100,55.1-110.2,34.69-4.08,134.69-16.33,155.1,20.41,10.21,16.32,4.08,57.14-4.08,73.46-14.28,28.58-26.53,18.37-59.18,18.37-53.06,0-104.08,6.12-155.1,4.08" transform="translate(-96.94 -214.1)" style="fill:#fff"/><path d="M162.14,330.12c-2.81-19.12-5.51-39.36-.53-58.36,4.21-16,14.29-28.91,29.18-36.35,14.6-7.29,30.77-8.72,46.74-10.34,17.15-1.74,34.37-2.95,51.61-3,17.41,0,35.26.9,52.12,5.55,13.1,3.62,26.8,10.14,32.5,23.31,4.14,9.55,3.74,20.63,2.53,30.74-1.15,9.6-3.14,19.39-6.83,28.36-3,7.36-7.54,15.48-14.45,19.85-5.55,3.5-12.12,3.69-18.48,3.35-11.22-.59-22.28-1.71-33.54-1.62-16.82.14-33.62.85-50.41,1.68-32.91,1.62-65.84,3.64-98.8,2.38-.49,0-.7,8,0,8,60,2.28,119.89-7.08,179.78-2.64,7,.52,14.49.9,20.76-2.74,7.26-4.21,12-12.63,15.16-20.11,7.54-17.92,9.65-39.51,8-58.75-1.4-16.23-8.49-28.15-23.42-35.15-16.43-7.72-35.6-9.4-53.51-10-19.37-.66-38.78.48-58.06,2.3-17.35,1.65-35.28,2.8-51.18,10.58-35.61,17.41-35.39,60-31.62,94.18.58,5.23,1.28,10.46,2.05,15.67.23,1.57.53-1.26.54-1.43a22.76,22.76,0,0,0-.14-5.47Z" transform="translate(-96.94 -214.1)" style="fill:#231f20"/><path d="M176.87,407.38c-8.17,55.1-6.12,100,55.1,110.2,34.69,4.08,134.69,16.33,155.1-20.41,10.21-16.32,4.08-57.14-4.08-73.46-14.28-28.58-26.53-18.37-59.18-18.37-53.06,0-104.09-6.13-155.11-4.09" transform="translate(-96.94 -214.1)" style="fill:#939598"/><path d="M176.67,403.93c-4.79,32.59-10.87,77.7,17.28,101.93,14,12,32.53,15.15,50.24,17.13,17.9,2,35.87,3.46,53.88,3.79,19.07.36,38.59-.41,57.12-5.23,14-3.65,28.31-10.64,34.09-24.78,3.41-8.35,3.59-18.14,3.53-27a150.4,150.4,0,0,0-3.53-31c-3.2-14.56-10-34.95-26.61-38.56-9.34-2-19.75.31-29.14.87-17.44,1-35.11,0-52.55-.78-37.41-1.61-74.81-4.44-112.28-3-.69,0-.5,8,0,8C228.3,403,288,412.8,347.47,408c7.11-.58,14.53-1,21.08,2.28,7.78,3.92,12.62,13,15.84,20.65,4.08,9.76,6,20.56,7.12,31s1,22.16-4.54,31.4c-8.09,13.59-24.32,18.91-39,21.91-19.06,3.9-38.9,4-58.26,3.34-17.16-.61-34.26-2.25-51.31-4.22-18.21-2.11-36.76-7.47-49.54-21.38-20-21.81-15.74-55.42-11.81-82.14a27,27,0,0,0,.14-5.47c0-.23-.32-3-.54-1.43Z" transform="translate(-96.94 -214.1)" style="fill:none"/><path d="M162.47,393c-8.17,55.1-6.12,100,55.1,110.2,34.69,4.08,134.69,16.33,155.1-20.41,10.21-16.32,4.08-57.14-4.08-73.47-14.29-28.57-26.53-18.36-59.18-18.36-53.06,0-104.09-6.13-155.11-4.09" transform="translate(-96.94 -214.1)" style="fill:#fff"/><path d="M162.27,389.53c-2.88,19.58-5,39.67-2.79,59.44,1.83,16.46,7.67,32.44,20.86,43.15,14.45,11.73,32.84,14.65,50.77,16.61,18.25,2,36.59,3.49,55,3.68,18.9.21,38.42-.57,56.7-5.81,14.14-4.05,28.33-11.71,32.94-26.65,5.61-18.14,3-40.32-1.5-58.42-3.64-14.83-11.3-34.35-28.73-36.16-8.5-.88-17.23.75-25.7,1.25-15.11.9-30.36.16-45.47-.43-32.12-1.23-64.21-3.65-96.38-3.74q-11.82,0-23.63.41c-.68,0-.5,8,0,8,29.44-1.12,58.86.36,88.26,1.85,27.42,1.39,55.34,3.71,82.77,1.51,7.26-.58,14.9-1.84,22.15-.59S360,399.38,364,405.31c4.93,7.26,7.95,15.44,10,23.92,2.63,10.76,4.42,22.36,3.33,33.44-1.56,16-10.77,26.64-25.29,32.73-15.38,6.45-32.67,8.14-49.17,8.81a426.42,426.42,0,0,1-53.61-1.68c-15.06-1.29-30.85-2.1-45.37-6.47-18.49-5.57-33.6-17.37-40.12-35.94-7.16-20.36-4.16-42.84-1.1-63.69a22.76,22.76,0,0,0,.14-5.47c0-.36-.32-2.93-.54-1.43Z" transform="translate(-96.94 -214.1)" style="fill:#231f20"/><text transform="translate(99.69 97.02)" style="font-size:60px;fill:#231f20;font-family:Arial-Black, Arial Black;font-weight:800">Abc</text><path d="M157.86,331.53c-30.62-77.55-75.51,4.08-55.11,51,14.29,32.65,71.43,28.57,57.15-12.24" transform="translate(-96.94 -214.1)" style="fill:#8b8f9e"/><path d="M158,327.68c-5.19-12.92-17.33-38.77-35.72-30.75-14.65,6.39-21.1,26.39-23.56,40.71-2.92,17-3.07,39,6.79,53.95,8.34,12.7,25.31,19.61,40.12,15.66,17.74-4.73,20.37-25.38,14.41-40.49.4,1-.76,5.16-.2,7.09,1.26,4.33,2.55,8.15,1,12.54a18.91,18.91,0,0,1-4.84,7.36c-4.08,3.84-9.6,5.81-15.1,6.39-13.1,1.38-27-4.62-34.6-15.45-9.82-14-9.65-33.12-5.15-48.92,3.32-11.62,9.85-26.71,22.15-31.26,18-6.65,29.44,18.2,34.53,30.87-.47-1.18,1.07-5.56.21-7.7Z" transform="translate(-96.94 -214.1)" style="fill:#231f20"/><path d="M359.9,327.45C382.35,307,425.2,307,431.33,345.82c8.16,55.1-55.11,40.81-83.68,36.73" transform="translate(-96.94 -214.1)" style="fill:#8b8f9e"/><path d="M359.9,331.44c20.13-17.9,58-20.31,69,9.05,4.94,13.21,3.09,28.57-9.57,36.46-9.78,6.1-22.34,6.65-33.52,6.23-12.82-.48-25.44-2.79-38.11-4.62-.21,0-.95,7.85,0,8,12.67,1.83,25.29,4.14,38.11,4.62,12.17.46,26.48-.21,36.37-8.25,10.6-8.61,11.13-23.54,9.94-36.1-1.47-15.53-8.95-29.94-24.56-35-16.35-5.28-35.08.48-47.61,11.63-1.59,1.41.92,7.16,0,8Z" transform="translate(-96.94 -214.1)" style="fill:#231f20"/><text transform="matrix(1, 0, 0, -1, 93.57, 203.14)" style="font-size:60px;fill:#231f20;font-family:Arial-Black, Arial Black;font-weight:800">De<tspan x="86.69" y="0" style="letter-spacing:0.05810546875em">f</tspan></text></svg>